name ./resultDataOpenSim/trcMotMarkerGrf/sub09/grf-03-02.mot
datacolumns 19
datarows 25
range 0.99200000 1.08800000
endheader

                time	     ground_force_vx	     ground_force_vy	     ground_force_vz	     ground_force_px	     ground_force_py	     ground_force_pz	   l_ground_force_vx	   l_ground_force_vy	   l_ground_force_vz	   l_ground_force_px	   l_ground_force_py	   l_ground_force_pz	     ground_torque_x	     ground_torque_y	     ground_torque_z	   l_ground_torque_x	   l_ground_torque_y	   l_ground_torque_z	
          0.99200000	          0.00000000	          0.00000000	          0.00000000	          0.00000000	          0.00000000	          0.00000000	         -6.69716013	        466.96677029	          6.33326705	          0.13782851	         -0.05000000	          0.02415402	          0.00000000	          0.00000000	          0.00000000	          0.00000000	         -3.82041255	          0.00000000	
          0.99600000	          0.00000000	          0.00000000	          0.00000000	          0.00000000	          0.00000000	          0.00000000	         -4.62835719	        473.67735453	          6.24860546	          0.13838071	         -0.05000000	          0.02455614	          0.00000000	          0.00000000	          0.00000000	          0.00000000	         -3.99880573	          0.00000000	
          1.00000000	          0.00000000	          0.00000000	          0.00000000	          0.00000000	          0.00000000	          0.00000000	         -2.36693608	        480.68629067	          6.26750246	          0.13894373	         -0.05000000	          0.02497791	          0.00000000	          0.00000000	          0.00000000	          0.00000000	         -4.17104662	          0.00000000	
          1.00400000	          0.00000000	          0.00000000	          0.00000000	          0.00000000	          0.00000000	          0.00000000	          0.16790953	        487.96215843	          6.35995960	          0.13938865	         -0.05000000	          0.02533941	          0.00000000	          0.00000000	          0.00000000	          0.00000000	         -4.34264412	          0.00000000	
          1.00800000	          0.00000000	          0.00000000	          0.00000000	          0.00000000	          0.00000000	          0.00000000	          3.06718667	        495.48150624	          6.51704085	          0.13962742	         -0.05000000	          0.02557435	          0.00000000	          0.00000000	          0.00000000	          0.00000000	         -4.51788495	          0.00000000	
          1.01200000	          0.00000000	          0.00000000	          0.00000000	          0.00000000	          0.00000000	          0.00000000	          6.38322259	        503.22982216	          6.75462923	          0.13962176	         -0.05000000	          0.02565946	          0.00000000	          0.00000000	          0.00000000	          0.00000000	         -4.69859630	          0.00000000	
          1.01600000	          0.00000000	          0.00000000	          0.00000000	          0.00000000	          0.00000000	          0.00000000	         10.10592725	        511.18466323	          7.10509412	          0.13942733	         -0.05000000	          0.02562237	          0.00000000	          0.00000000	          0.00000000	          0.00000000	         -4.88370696	          0.00000000	
          1.02000000	          0.00000000	          0.00000000	          0.00000000	          0.00000000	          0.00000000	          0.00000000	         14.18118719	        519.28895910	          7.60717562	          0.13916676	         -0.05000000	          0.02551927	          0.00000000	          0.00000000	          0.00000000	          0.00000000	         -5.06970262	          0.00000000	
          1.02400000	          0.00000000	          0.00000000	          0.00000000	          0.00000000	          0.00000000	          0.00000000	         18.53991639	        527.46940717	          8.29573201	          0.13895389	         -0.05000000	          0.02540356	          0.00000000	          0.00000000	          0.00000000	          0.00000000	         -5.25177743	          0.00000000	
          1.02800000	          0.00000000	          0.00000000	          0.00000000	          0.00000000	          0.00000000	          0.00000000	         23.11319208	        535.66408708	          9.18898836	          0.13885971	         -0.05000000	          0.02529669	          0.00000000	          0.00000000	          0.00000000	          0.00000000	         -5.42523490	          0.00000000	
          1.03200000	          0.00000000	          0.00000000	          0.00000000	          0.00000000	          0.00000000	          0.00000000	         27.84400020	        543.83333711	         10.27984170	          0.13890581	         -0.05000000	          0.02519616	          0.00000000	          0.00000000	          0.00000000	          0.00000000	         -5.58660529	          0.00000000	
          1.03600000	          0.00000000	          0.00000000	          0.00000000	          0.00000000	          0.00000000	          0.00000000	         32.69484416	        551.99430102	         11.54176637	          0.13908320	         -0.05000000	          0.02510985	          0.00000000	          0.00000000	          0.00000000	          0.00000000	         -5.73417232	          0.00000000	
          1.04000000	          0.00000000	          0.00000000	          0.00000000	          0.00000000	          0.00000000	          0.00000000	         37.64150958	        560.24818411	         12.93456571	          0.13936459	         -0.05000000	          0.02505229	          0.00000000	          0.00000000	          0.00000000	          0.00000000	         -5.86798128	          0.00000000	
          1.04400000	          0.00000000	          0.00000000	          0.00000000	          0.00000000	          0.00000000	          0.00000000	         42.65665092	        568.73751945	         14.39263739	          0.13970209	         -0.05000000	          0.02502276	          0.00000000	          0.00000000	          0.00000000	          0.00000000	         -5.98953446	          0.00000000	
          1.04800000	          0.00000000	          0.00000000	          0.00000000	          0.00000000	          0.00000000	          0.00000000	         47.69493547	        577.55998389	         15.82676203	          0.14004124	         -0.05000000	          0.02501548	          0.00000000	          0.00000000	          0.00000000	          0.00000000	         -6.10124525	          0.00000000	
          1.05200000	          0.00000000	          0.00000000	          0.00000000	          0.00000000	          0.00000000	          0.00000000	         52.69581439	        586.71196004	         17.16613110	          0.14035194	         -0.05000000	          0.02504226	          0.00000000	          0.00000000	          0.00000000	          0.00000000	         -6.20570004	          0.00000000	
          1.05600000	          0.00000000	          0.00000000	          0.00000000	          0.00000000	          0.00000000	          0.00000000	         57.60648480	        596.10099921	         18.39297188	          0.14062063	         -0.05000000	          0.02512320	          0.00000000	          0.00000000	          0.00000000	          0.00000000	         -6.30493679	          0.00000000	
          1.06000000	          0.00000000	          0.00000000	          0.00000000	          0.00000000	          0.00000000	          0.00000000	         62.40132309	        605.61642876	         19.51849554	          0.14083930	         -0.05000000	          0.02525813	          0.00000000	          0.00000000	          0.00000000	          0.00000000	         -6.39994439	          0.00000000	
          1.06400000	          0.00000000	          0.00000000	          0.00000000	          0.00000000	          0.00000000	          0.00000000	         67.07981765	        615.19505298	         20.53464449	          0.14100782	         -0.05000000	          0.02541840	          0.00000000	          0.00000000	          0.00000000	          0.00000000	         -6.49034964	          0.00000000	
          1.06800000	          0.00000000	          0.00000000	          0.00000000	          0.00000000	          0.00000000	          0.00000000	         71.65333942	        624.82819200	         21.41198109	          0.14112182	         -0.05000000	          0.02556436	          0.00000000	          0.00000000	          0.00000000	          0.00000000	         -6.57417684	          0.00000000	
          1.07200000	          0.00000000	          0.00000000	          0.00000000	          0.00000000	          0.00000000	          0.00000000	         76.13237877	        634.53707818	         22.14356977	          0.14118440	         -0.05000000	          0.02567109	          0.00000000	          0.00000000	          0.00000000	          0.00000000	         -6.64781491	          0.00000000	
          1.07600000	          0.00000000	          0.00000000	          0.00000000	          0.00000000	          0.00000000	          0.00000000	         80.51844971	        644.34804679	         22.76977196	          0.14123676	         -0.05000000	          0.02574774	          0.00000000	          0.00000000	          0.00000000	          0.00000000	         -6.70652625	          0.00000000	
          1.08000000	          0.00000000	          0.00000000	          0.00000000	          0.00000000	          0.00000000	          0.00000000	         84.80365390	        654.25577459	         23.35338968	          0.14135817	         -0.05000000	          0.02583190	          0.00000000	          0.00000000	          0.00000000	          0.00000000	         -6.74560596	          0.00000000	
          1.08400000	          0.00000000	          0.00000000	          0.00000000	          0.00000000	          0.00000000	          0.00000000	         88.96958761	        664.19249547	         23.93593685	          0.14160247	         -0.05000000	          0.02595205	          0.00000000	          0.00000000	          0.00000000	          0.00000000	         -6.76180204	          0.00000000	
          1.08800000	          0.00000000	          0.00000000	          0.00000000	          0.00000000	          0.00000000	          0.00000000	         92.98753767	        674.04352548	         24.51038701	          0.14197572	         -0.05000000	          0.02611305	          0.00000000	          0.00000000	          0.00000000	          0.00000000	         -6.75428264	          0.00000000	
